<svg width="34" height="34" viewBox="0 0 34 34" fill="none" xmlns="http://www.w3.org/2000/svg">
<path d="M28.2 1H5.8C3.53726 1 2.40589 1 1.70294 1.7328C1 2.4656 1 3.64501 1 6.00383V7.23018C1 9.07522 1 9.99775 1.41536 10.7625C1.83072 11.5273 2.58955 12.0019 4.10723 12.9512L8.76806 15.8665C9.78634 16.5033 10.2955 16.8218 10.66 17.1735C11.4192 17.9058 11.8865 18.7662 12.0983 19.8217C12.2 20.3283 12.2 20.9214 12.2 22.1073V26.8531C12.2 28.4702 12.2 29.2785 12.6031 29.9089C13.0062 30.5392 13.722 30.8501 15.1539 31.4721C18.1597 32.7777 19.6626 33.4305 20.7314 32.6878C21.8 31.945 21.8 30.2478 21.8 26.8531V22.1073C21.8 20.9214 21.8 20.3283 21.9018 19.8217C22.1134 18.7662 22.5808 17.9058 23.34 17.1735C23.7045 16.8218 24.2136 16.5033 25.232 15.8665L29.8928 12.9512C31.4104 12.0019 32.1693 11.5273 32.5846 10.7625C33 9.99775 33 9.07522 33 7.23018V6.00383C33 3.64501 33 2.4656 32.2971 1.7328C31.5941 1 30.4627 1 28.2 1Z" stroke="white" stroke-width="2"/>
</svg>
