<svg width="38" height="38" viewBox="0 0 38 38" fill="none" xmlns="http://www.w3.org/2000/svg">
<path d="M13 1H5C3.93913 1 2.92172 1.42143 2.17157 2.17157C1.42143 2.92172 1 3.93913 1 5V13M13 1H33C34.0609 1 35.0783 1.42143 35.8284 2.17157C36.5786 2.92172 37 3.93913 37 5V13M13 1V37M1 13V33C1 34.0609 1.42143 35.0783 2.17157 35.8284C2.92172 36.5786 3.93913 37 5 37H13M1 13H37M37 13V33C37 34.0609 36.5786 35.0783 35.8284 35.8284C35.0783 36.5786 34.0609 37 33 37H13" stroke="#FEF7FF" stroke-width="2" stroke-linecap="round" stroke-linejoin="round"/>
</svg>
