<svg width="42" height="42" viewBox="0 0 42 42" fill="none" xmlns="http://www.w3.org/2000/svg">
<path d="M8.18746 31.625C9.95829 30.2708 11.9375 29.2031 14.125 28.4218C16.3125 27.6406 18.6041 27.25 21 27.25C23.3958 27.25 25.6875 27.6406 27.875 28.4218C30.0625 29.2031 32.0416 30.2708 33.8125 31.625C35.0277 30.2013 35.9739 28.5868 36.651 26.7812C37.3281 24.9757 37.6666 23.0486 37.6666 21C37.6666 16.3819 36.0434 12.4496 32.7968 9.20308C29.5503 5.95656 25.618 4.33329 21 4.33329C16.3819 4.33329 12.4496 5.95656 9.20308 9.20308C5.95656 12.4496 4.33329 16.3819 4.33329 21C4.33329 23.0486 4.67183 24.9757 5.34892 26.7812C6.026 28.5868 6.97218 30.2013 8.18746 31.625ZM21 23.0833C18.9513 23.0833 17.2239 22.3802 15.8177 20.9739C14.4114 19.5677 13.7083 17.8402 13.7083 15.7916C13.7083 13.743 14.4114 12.0156 15.8177 10.6093C17.2239 9.20308 18.9513 8.49996 21 8.49996C23.0486 8.49996 24.776 9.20308 26.1823 10.6093C27.5885 12.0156 28.2916 13.743 28.2916 15.7916C28.2916 17.8402 27.5885 19.5677 26.1823 20.9739C24.776 22.3802 23.0486 23.0833 21 23.0833ZM21 41.8333C18.118 41.8333 15.4097 41.2864 12.875 40.1927C10.3402 39.0989 8.13538 37.6145 6.26038 35.7395C4.38538 33.8645 2.901 31.6597 1.80725 29.125C0.713501 26.5902 0.166626 23.8819 0.166626 21C0.166626 18.118 0.713501 15.4097 1.80725 12.875C2.901 10.3402 4.38538 8.13538 6.26038 6.26038C8.13538 4.38538 10.3402 2.901 12.875 1.80725C15.4097 0.713501 18.118 0.166626 21 0.166626C23.8819 0.166626 26.5902 0.713501 29.125 1.80725C31.6597 2.901 33.8645 4.38538 35.7395 6.26038C37.6145 8.13538 39.0989 10.3402 40.1927 12.875C41.2864 15.4097 41.8333 18.118 41.8333 21C41.8333 23.8819 41.2864 26.5902 40.1927 29.125C39.0989 31.6597 37.6145 33.8645 35.7395 35.7395C33.8645 37.6145 31.6597 39.0989 29.125 40.1927C26.5902 41.2864 23.8819 41.8333 21 41.8333Z" fill="#FEF7FF"/>
</svg>
